<?xml version="1.0" encoding="utf-8"?>
<!-- Generator: Adobe Illustrator 16.0.0, SVG Export Plug-In . SVG Version: 6.00 Build 0)  -->
<!DOCTYPE svg PUBLIC "-//W3C//DTD SVG 1.1//EN" "http://www.w3.org/Graphics/SVG/1.1/DTD/svg11.dtd">
<svg version="1.1" id="Layer_1" xmlns="http://www.w3.org/2000/svg" xmlns:xlink="http://www.w3.org/1999/xlink" x="0px" y="0px"
	 width="792px" height="612px" viewBox="0 0 792 612" enable-background="new 0 0 792 612" xml:space="preserve">
<g>
	<path fill="#FFFFFF" d="M479.67,124.816H271.59c-17.136,0-31.824,13.708-31.824,29.376v190.943c0,1.469,0.489,3.428,0.979,4.406
		c-0.979,3.428-0.979,6.365-0.979,10.282c0,24.479,19.584,44.063,44.063,44.063h14.688c1.958,0,3.427-0.489,4.896-1.469v16.157
		c0,3.427,1.959,6.364,4.406,8.323c2.938,1.958,6.365,1.958,9.303,0.489l24.97-12.729l24.97,12.729
		c1.469,0.49,2.938,0.979,4.406,0.979c1.959,0,3.428-0.489,5.386-1.469c2.938-1.958,4.406-4.896,4.406-8.323v-14.688h97.92
		c16.157,0,29.376-13.219,29.376-29.376V340.24v-34.272l0,0v-9.792V154.192C509.047,138.035,495.827,124.816,479.67,124.816z
		 M489.463,154.192v141.983v9.792l0,0c0,5.386-4.406,9.792-9.793,9.792H347.479h-48.96h-4.896V144.4H479.67
		C485.057,144.4,489.463,148.807,489.463,154.192z M271.59,144.4h2.448V315.76c0,0.49,0,0.979,0,0.979
		c-5.385,0.979-10.281,3.427-14.688,6.364V154.192C259.351,149.296,265.715,144.4,271.59,144.4z M298.519,384.304H283.83
		c-13.708,0-24.479-10.771-24.479-24.479c0-13.709,10.771-24.48,24.479-24.48h14.688h48.96H479.67c3.428,0,6.854-0.489,9.793-1.958
		v6.854c0,5.386-4.406,9.792-9.793,9.792H371.959l0,0l0,0h-58.264l0,0l0,0h-14.688c-5.386,0-9.792,4.406-9.792,9.792
		s4.406,9.792,9.792,9.792h4.896v16.156C301.945,384.794,300.477,384.304,298.519,384.304z M362.166,402.909l-15.178-7.834
		c-2.938-1.469-5.875-1.469-8.812,0l-15.178,7.834v-33.293h39.168V402.909L362.166,402.909z M479.67,384.304h-97.92v-14.688h97.92
		c3.428,0,6.854-0.49,9.793-1.959v6.854C489.463,379.897,485.057,384.304,479.67,384.304z"/>
	<path fill="#FFFFFF" d="M332.79,237.424h117.505c5.385,0,9.791-4.406,9.791-9.792v-44.063c0-5.386-4.406-9.792-9.791-9.792H332.79
		c-5.386,0-9.792,4.406-9.792,9.792v44.063C322.998,233.018,327.404,237.424,332.79,237.424z M342.582,193.36h97.92v24.479h-97.92
		V193.36z"/>
</g>
</svg>
