<?xml version="1.0" encoding="utf-8"?>
<!-- Generator: Adobe Illustrator 16.0.0, SVG Export Plug-In . SVG Version: 6.00 Build 0)  -->
<!DOCTYPE svg PUBLIC "-//W3C//DTD SVG 1.1//EN" "http://www.w3.org/Graphics/SVG/1.1/DTD/svg11.dtd">
<svg version="1.1" id="Layer_1" xmlns="http://www.w3.org/2000/svg" xmlns:xlink="http://www.w3.org/1999/xlink" x="0px" y="0px"
	 width="792px" height="612px" viewBox="0 0 792 612" enable-background="new 0 0 792 612" xml:space="preserve">
<path fill="#FFFFFF" d="M530.15,28.397H282.413c-17.136,0-31.334,14.198-31.334,31.334v316.281c0,15.667,11.75,28.396,26.438,30.845
	v56.794c0,2.938,1.958,5.875,4.896,6.854c0.979,0.489,1.469,0.489,2.448,0.489c1.958,0,4.406-0.979,5.875-2.448l14.688-17.625
	l15.667,18.115c1.958,2.447,5.385,2.938,8.323,1.958c2.938-0.979,4.896-3.917,4.896-6.854v-57.283h195.84
	c17.136,0,31.334-14.198,31.334-31.334V59.731C561.484,42.105,547.286,28.397,530.15,28.397z M265.767,376.013V59.731
	c0-9.303,7.344-16.646,16.646-16.646h216.404V392.17H282.413C273.11,392.17,265.767,384.825,265.767,376.013z M319.623,444.067
	l-8.323-9.792c-1.469-1.469-3.427-2.448-5.386-2.448s-4.406,0.979-5.386,2.448l-7.344,8.812v-36.23h26.928v37.21H319.623z
	 M546.797,376.013c0,9.303-7.344,16.646-16.646,16.646h-16.646V43.085h16.646c9.303,0,16.646,7.344,16.646,16.646V376.013z"/>
</svg>
