<?xml version="1.0" encoding="utf-8"?>
<!-- Generator: Adobe Illustrator 16.0.0, SVG Export Plug-In . SVG Version: 6.00 Build 0)  -->
<!DOCTYPE svg PUBLIC "-//W3C//DTD SVG 1.1//EN" "http://www.w3.org/Graphics/SVG/1.1/DTD/svg11.dtd">
<svg version="1.1" id="Layer_1" xmlns="http://www.w3.org/2000/svg" xmlns:xlink="http://www.w3.org/1999/xlink" x="0px" y="0px"
	 width="792px" height="612px" viewBox="0 0 792 612" enable-background="new 0 0 792 612" xml:space="preserve">
<g>
	<path fill="#FFFFFF" d="M371.193,343.434L371.193,343.434c-11.536,0-23.174-8.578-23.174-27.733v-91.79
		c0-19.166,11.648-27.744,23.185-27.744c5.682,0,11.537,1.938,17.412,5.773l65.933,43.105c9.445,6.161,14.872,15.178,14.872,24.735
		c0,9.557-5.416,18.594-14.872,24.755l-65.933,43.105C382.74,341.485,376.875,343.434,371.193,343.434z M371.204,216.566
		c-2.754,0-2.785,7.038-2.785,7.344v91.79c0,0.296,0.031,7.333,2.774,7.333l0,0c0.755,0,2.856-0.234,6.263-2.457l65.943-43.106
		c3.58-2.335,5.631-5.141,5.631-7.68c0-2.54-2.051-5.335-5.621-7.661l-65.942-43.105
		C374.06,216.811,371.948,216.566,371.204,216.566z"/>
	<path fill="#FFFFFF" d="M559.965,514.6h-327.93c-44.574,0-80.835-36.261-80.835-80.835v-327.93C151.2,61.261,187.461,25,232.035,25
		h327.93c44.574,0,80.835,36.261,80.835,80.835v327.93C640.8,478.339,604.539,514.6,559.965,514.6z M232.035,45.4
		c-33.324,0-60.435,27.112-60.435,60.435v327.93c0,33.323,27.111,60.436,60.435,60.436h327.93c33.323,0,60.436-27.112,60.436-60.436
		v-327.93c0-33.323-27.112-60.435-60.436-60.435H232.035z"/>
	<path fill="#FFFFFF" d="M572.052,405.43H219.948c-5.631,0-10.2-4.56-10.2-10.2V144.381c0-5.63,4.569-10.2,10.2-10.2h352.104
		c5.641,0,10.2,4.57,10.2,10.2v250.849C582.252,400.87,577.692,405.43,572.052,405.43z M230.148,385.029h331.704V154.581H230.148
		V385.029z"/>
	<g>
		<g>
			<rect x="212.441" y="78.376" fill="#FFFFFF" width="25.888" height="20.4"/>
			<rect x="269.316" y="78.376" fill="#FFFFFF" width="25.877" height="20.4"/>
			<rect x="326.181" y="78.376" fill="#FFFFFF" width="25.887" height="20.4"/>
			<rect x="383.046" y="78.376" fill="#FFFFFF" width="25.908" height="20.4"/>
			<rect x="439.932" y="78.376" fill="#FFFFFF" width="25.897" height="20.4"/>
			<rect x="496.807" y="78.376" fill="#FFFFFF" width="25.877" height="20.4"/>
			<rect x="553.672" y="78.376" fill="#FFFFFF" width="25.888" height="20.4"/>
		</g>
		<g>
			<rect x="212.441" y="440.834" fill="#FFFFFF" width="25.888" height="20.399"/>
			<rect x="269.316" y="440.834" fill="#FFFFFF" width="25.877" height="20.399"/>
			<rect x="326.181" y="440.834" fill="#FFFFFF" width="25.887" height="20.399"/>
			<rect x="383.046" y="440.834" fill="#FFFFFF" width="25.908" height="20.399"/>
			<rect x="439.932" y="440.834" fill="#FFFFFF" width="25.897" height="20.399"/>
			<rect x="496.807" y="440.834" fill="#FFFFFF" width="25.877" height="20.399"/>
			<rect x="553.672" y="440.834" fill="#FFFFFF" width="25.888" height="20.399"/>
		</g>
	</g>
</g>
</svg>
